# xmcd CD database file
#
# Track frame offsets:
#	150
#	33302
#	57307
#	74785
#	99267
#	132122
#	161355
#	188215
#	204337
#	219450
#	243300
#	271782
#	294860
#
# Disc length: 4418 seconds
#
# Revision: 4
# Processed by: cddbd v1.5.2PL0 Copyright (c) Steve Scherf et al.
# Submitted via: CDex 1.51
#
DISCID=b611400d
DTITLE=Various Artist - Woodstock 94 (Disc-2)
DYEAR=1900
DGENRE=Rock
TTITLE0=For Whom The Bell Tolls - Metallica
TTITLE1=The Hunter - Paul Rodgers featuring Slash, Jason Bonham, Neil Schon, Andy Fraser
TTITLE2=Come Together - The Neville Brothers
TTITLE3=Run, Baby, Run - Sheryl Crow
TTITLE4=Deja Vu - Crosby, Stills and Nash
TTITLE5=Dance, M.F., Dance! - Kiss Off - Violent Femmes
TTITLE6=Shine - Collective Soul
TTITLE7=Arrow - Candlebox
TTITLE8=How I Could Just Kill A Man - Cypress Hill
TTITLE9=Right Here Too Much - Rollins Band
TTITLE10=Highway 61 - Bob Dylan
TTITLE11=Pearly Queen - Traffic
TTITLE12=Biko - Peter Gabriel
EXTD=
EXTT0=
EXTT1=
EXTT2=
EXTT3=
EXTT4=
EXTT5=
EXTT6=
EXTT7=
EXTT8=
EXTT9=
EXTT10=
EXTT11=
EXTT12=
PLAYORDER=
